<svg xmlns="http://www.w3.org/2000/svg" width="24" height="24" viewBox="0 0 24 24" fill="none">
  <path d="M3 20.55V16.2C3 15.9515 3.26863 15.75 3.6 15.75H20.4C20.7314 15.75 21 15.9515 21 16.2V20.55C21 20.7985 20.7314 21 20.4 21H3.6C3.26863 21 3 20.7985 3 20.55Z" stroke="#333333" stroke-width="1.5"/>
  <path d="M3 14.6571V4.09286C3 3.48929 3.69076 3 4.54286 3H19.4571C20.3092 3 21 3.48929 21 4.09286V14.6571C21 15.2607 20.3092 15.75 19.4571 15.75H4.54286C3.69076 15.75 3 15.2607 3 14.6571Z" stroke="#333333" stroke-width="1.5"/>
</svg>