<svg xmlns="http://www.w3.org/2000/svg" xmlns:xlink="http://www.w3.org/1999/xlink" version="1.1" id="Layer_1" x="0px" y="0px" width="100%" viewBox="0 0 188 188" enable-background="new 0 0 188 188" xml:space="preserve">
<path fill="none" opacity="1.000000" stroke-linecap="round" stroke-linejoin="round" stroke-width="6.000000" d=" M127.000000,35.500000   C127.235786,26.499992 127.235786,26.499996 118.000000,26.500000   C109.000000,26.500004 100.000000,26.500000 91.000000,26.500000   C78.333336,26.500000 65.666664,26.500000 53.000000,26.500000   C47.833332,26.500000 42.653912,26.722729 37.504135,26.427774   C33.561050,26.201935 32.401234,27.575180 32.421516,31.500406   C32.567913,59.832981 32.500000,88.166664 32.500000,116.500000   C32.500000,130.833328 32.494743,145.166672 32.506489,159.500000   C32.507999,161.344070 32.250053,163.219696 33.044003,165.000000   C64.000000,165.000000 95.000000,165.000000 126.262230,165.000000   C126.594589,159.642883 128.224243,154.253403 125.500000,149.000000  "/>
<path fill="none" opacity="1.000000" stroke-linecap="round" stroke-linejoin="round" stroke-width="6.000000" d=" M46.500000,28.000000   C48.295330,44.788635 49.179646,61.638493 48.385719,78.494614   C47.945099,87.849640 46.883564,97.197701 45.629730,106.517456   C44.800705,112.679588 45.762917,118.930069 47.477051,125.006477   C50.934814,137.263824 54.697144,149.486755 53.526714,162.502396   C53.483452,162.983521 53.833332,163.500000 54.000000,164.000000  "/>
<path fill="none" opacity="1.000000" stroke-linecap="round" stroke-linejoin="round" stroke-width="6.000000" d=" M84.000000,28.000000   C83.198730,29.603207 83.512352,31.325586 83.511475,33.000008   C83.495689,62.999996 83.554367,93.000259 83.410347,122.999573   C83.396919,125.796906 83.999718,128.495346 84.692032,130.945740   C86.012840,135.620605 93.243271,138.347244 97.972527,136.432159   C99.638168,135.757675 101.051735,134.462662 103.000000,134.500000  "/>
<path fill="none" opacity="1.000000" stroke-linecap="round" stroke-linejoin="round" stroke-width="5.000000" d=" M115.000000,104.000000   C117.321053,103.484650 118.521408,101.512810 119.970451,99.972206   C128.532028,90.869675 138.339844,82.970848 146.008224,73.006325   C147.288620,71.342537 149.253967,71.545074 150.431000,72.578583   C152.988022,74.823822 154.994095,77.696754 157.552170,79.940529   C159.777878,81.892799 158.125153,83.665260 157.385010,84.932861   C155.695984,87.825546 153.965271,90.570618 153.470901,93.995796   C152.307785,102.054115 157.521042,106.468178 163.097458,110.360359   C164.766953,111.525612 166.519226,112.580376 167.992630,114.007614   C170.261581,116.205475 172.822739,117.985550 170.612015,122.060768   C168.110474,126.672028 165.862869,128.740250 161.499451,128.510284   C158.676178,128.361511 156.841400,126.960220 155.456635,124.524651   C154.159256,122.242783 152.599274,120.089317 150.982117,118.013939   C145.221405,110.620926 137.617126,108.634171 129.144730,113.740158   C124.697998,116.420036 122.132286,116.246269 119.565277,112.455795   C117.809227,109.862801 113.327873,109.150299 114.263252,104.452858   C114.429504,103.617989 111.578819,102.043678 109.985535,101.022583   C104.766640,97.677917 100.763969,93.134155 97.578613,87.951683   C95.890831,85.205711 95.573433,81.976616 98.509323,79.511101   C106.290642,72.976486 112.399315,64.741783 120.384888,58.356049   C123.413597,55.934116 125.571312,52.267723 128.498276,49.498184   C129.787643,48.278156 130.862427,46.685707 133.003510,47.003677   C136.601212,48.601555 135.691254,52.455238 136.255783,55.053070   C137.769104,62.017036 141.256989,67.522400 146.000000,72.500000  "/>
<path fill="none" opacity="1.000000" stroke-linecap="round" stroke-linejoin="round" stroke-width="6.000000" d=" M61.500000,28.000000   C61.500000,32.833332 61.683697,37.675114 61.461952,42.498249   C60.992874,52.701065 63.063862,62.791080 62.579815,73.003784   C62.389702,77.014885 60.446636,80.902916 61.750000,85.000000  "/>
<path fill="none" opacity="1.000000" stroke-linecap="round" stroke-linejoin="round" stroke-width="6.000000" d=" M64.500000,112.500000   C62.666225,126.567963 65.050720,140.024002 70.529900,152.987366   C72.100548,156.703400 73.519447,160.400726 73.500000,164.500000  "/>
<path fill="none" opacity="1.000000" stroke-linecap="round" stroke-linejoin="round" stroke-width="6.000000" d=" M104.000000,118.500000   C104.623940,122.333336 105.006905,126.240852 103.934319,129.981171   C102.602539,134.625397 104.548073,139.000198 104.756943,143.488037   C104.942169,147.467834 108.493233,150.438080 112.521950,151.408905   C117.217384,152.540359 121.981926,151.060333 125.284241,148.015961   C127.008057,146.426788 126.708549,142.433334 126.943298,139.495468   C127.194717,136.348892 127.000000,133.166672 127.000000,130.000000  "/>
<path fill="none" opacity="1.000000" stroke-linecap="round" stroke-linejoin="round" stroke-width="5.000000" d=" M108.000000,72.000000   C110.048004,74.907082 110.455902,78.538834 112.357979,81.588577   C113.358780,83.193214 114.306976,82.886047 115.500000,83.000000  "/>
<path fill="none" opacity="1.000000" stroke-linecap="round" stroke-linejoin="round" stroke-width="6.000000" d=" M121.500000,59.000000   C122.753662,63.523605 123.422264,68.220566 125.500000,72.500000  "/>
</svg>