<svg xmlns="http://www.w3.org/2000/svg" width="32" height="32" viewBox="0 0 32 32" fill="none">
  <path d="M7.6665 21.0001L8.48476 18.709M8.48476 18.709L10.9998 11.6667L13.5149 18.709M8.48476 18.709H13.5149M14.3332 21.0001L13.5149 18.709" stroke="#333333" stroke-width="1.5" stroke-linecap="round" stroke-linejoin="round"/>
  <path d="M17.6665 21.0001V17.2667M17.6665 17.2667V11.6667H21.476C22.4284 11.6667 24.3332 11.6667 24.3332 14.4667C24.3332 17.2667 22.4284 17.2667 21.476 17.2667M17.6665 17.2667C18.3014 17.2667 19.9522 17.2667 21.476 17.2667M21.476 17.2667L24.3332 21.0001" stroke="#333333" stroke-width="1.5" stroke-linecap="round" stroke-linejoin="round"/>
  <path d="M3 24.8667V7.8C3 7.35817 3.35817 7 3.8 7H28.8667C29.3085 7 29.6667 7.35817 29.6667 7.8V24.8667C29.6667 25.3085 29.3085 25.6667 28.8667 25.6667H3.8C3.35817 25.6667 3 25.3085 3 24.8667Z" stroke="#333333" stroke-width="1.5"/>
</svg>