<svg xmlns="http://www.w3.org/2000/svg" width="63" height="65" viewBox="0 0 63 65" fill="none">
<g clip-path="url(#clip0_465_7198)">
<path d="M48.3752 30.0072C51.4617 16.8634 43.279 3.71962 30.0963 0.642186C16.9232 -2.42566 3.74054 5.73289 0.653998 18.8671C-2.43254 32.0109 5.75015 45.1547 18.9328 48.2322C32.1155 51.3096 45.2982 43.151 48.3848 30.0072H48.3752ZM15.529 22.3472C16.6925 17.4003 21.654 14.3325 26.6155 15.4925C31.5771 16.6525 34.654 21.5994 33.4905 26.5463C32.3271 31.4932 27.3655 34.5611 22.404 33.401C17.4425 32.241 14.3655 27.2941 15.529 22.3472Z" fill="#F07F25"/>
<path d="M52.9423 65C58.4971 65 63 60.5103 63 54.972C63 49.4337 58.4971 44.944 52.9423 44.944C47.3876 44.944 42.8846 49.4337 42.8846 54.972C42.8846 60.5103 47.3876 65 52.9423 65Z" fill="#F39358"/>
</g>
<defs>
<clipPath id="clip0_465_7198">
<rect width="63" height="65" fill="white"/>
</clipPath>
</defs>
</svg>