<svg xmlns="http://www.w3.org/2000/svg" width="24" height="24" viewBox="0 0 24 24" fill="none">
  <path d="M3.45635 3H7.80635C8.0549 3 8.25635 3.26863 8.25635 3.6V20.4C8.25635 20.7314 8.0549 21 7.80635 21H3.45635C3.2078 21 3.00635 20.7314 3.00635 20.4L3.00635 3.6C3.00635 3.26863 3.2078 3 3.45635 3Z" stroke="#333333" stroke-width="1.5"/>
  <path d="M9.33993 3L19.9042 3C20.5078 3 20.9971 3.69076 20.9971 4.54286V19.4571C20.9971 20.3092 20.5078 21 19.9042 21H9.33993C8.73636 21 8.24707 20.3092 8.24707 19.4571V4.54286C8.24707 3.69076 8.73636 3 9.33993 3Z" stroke="#333333" stroke-width="1.5"/>
</svg>