<svg class="" xmlns="http://www.w3.org/2000/svg" width="32" height="32" viewBox="0 0 32 32" fill="none"><path d="M16.0001 2.66675C8.63628 2.66675 2.66675 8.63628 2.66675 16.0001C2.66675 23.3638 8.63628 29.3334 16.0001 29.3334C23.3638 29.3334 29.3334 23.3638 29.3334 16.0001C29.3334 8.63628 23.3638 2.66675 16.0001 2.66675Z" stroke="#333333 active " stroke-width="1.5" stroke-linecap="round" stroke-linejoin="round"></path><path d="M10.6667 28.2238V18.6666L16.0001 9.33325L21.3334 18.6666V28.2238" stroke="#333333 active " stroke-width="1.5" stroke-linecap="round" stroke-linejoin="round"></path><path d="M10.6667 18.6666C10.6667 18.6666 12.1691 20 13.3334 20C14.4977 20 16.0001 18.6666 16.0001 18.6666C16.0001 18.6666 17.5025 20 18.6667 20C19.831 20 21.3334 18.6666 21.3334 18.6666" stroke="#333333 active " stroke-width="1.5" stroke-linecap="round" stroke-linejoin="round"></path></svg>