<?xml version="1.0" standalone="no"?>
<!DOCTYPE svg PUBLIC "-//W3C//DTD SVG 20010904//EN"
 "http://www.w3.org/TR/2001/REC-SVG-20010904/DTD/svg10.dtd">
<svg version="1.0" xmlns="http://www.w3.org/2000/svg"
 width="98.000000pt" height="97.000000pt" viewBox="0 0 98.000000 97.000000"
 preserveAspectRatio="xMidYMid meet">

<g transform="translate(0.000000,97.000000) scale(0.100000,-0.100000)"
fill="#000000" stroke="none">
<path d="M190 715 c0 -36 -8 -43 -27 -24 -6 6 -17 9 -24 7 -7 -2 12 -18 43
-35 49 -28 118 -101 118 -126 0 -5 -20 -27 -44 -48 -30 -27 -48 -53 -57 -84
-10 -35 -15 -41 -21 -28 -3 10 -7 29 -7 41 -1 29 -33 100 -39 84 -2 -6 2 -21
9 -34 7 -13 18 -57 25 -98 16 -100 28 -128 58 -136 18 -4 26 -15 30 -40 4 -19
11 -34 16 -34 6 0 6 10 0 26 -16 40 -12 45 28 42 35 -3 37 -5 37 -35 -1 -18 3
-33 7 -33 4 0 8 16 8 35 l0 35 130 0 130 0 0 -37 c0 -42 10 -40 13 3 2 26 6
29 41 32 40 3 40 3 19 -55 -3 -7 -1 -13 5 -13 5 0 12 14 16 30 3 19 15 34 30
41 31 14 42 42 61 146 7 45 19 91 24 102 16 29 13 39 -4 14 -9 -12 -22 -50
-29 -85 -8 -35 -14 -53 -15 -40 -2 50 -77 152 -112 152 -6 0 0 19 13 41 24 44
70 85 128 114 21 11 30 20 22 23 -8 2 -19 -1 -25 -7 -19 -19 -27 -12 -27 24 0
19 -4 35 -10 35 -5 0 -10 -20 -10 -45 0 -37 -4 -47 -27 -62 -14 -10 -39 -37
-54 -61 l-28 -44 -159 -1 -160 -2 -27 42 c-15 24 -40 52 -56 64 -25 17 -29 27
-29 65 0 24 -4 44 -10 44 -5 0 -10 -16 -10 -35z m469 -210 c39 -20 78 -69 91
-113 21 -78 43 -72 -271 -72 l-282 0 7 42 c10 59 42 112 85 136 32 19 52 22
189 22 115 0 160 -4 181 -15z m101 -216 c0 -9 -7 -25 -16 -33 -13 -14 -51 -16
-260 -16 -150 0 -253 4 -265 10 -19 11 -26 40 -12 54 4 3 130 6 280 5 256 -1
273 -3 273 -20z"/>
</g>
</svg>
